<svg xmlns="http://www.w3.org/2000/svg" width="38.049" height="38.047" viewBox="0 0 38.049 38.047">
  <path id="Path_1413" data-name="Path 1413" d="M529.834,1053.722a2.377,2.377,0,0,1-1.806-.831l-7.134-8.323a2.378,2.378,0,0,1,3.612-3.094l5.159,6.018,16.07-22.5a2.378,2.378,0,1,1,3.87,2.764l-17.834,24.968a2.376,2.376,0,0,1-1.83.993l-.107,0Zm10.7,8.323a4.761,4.761,0,0,0,4.756-4.756V1045.4a1.189,1.189,0,1,0-2.378,0v11.89a2.381,2.381,0,0,1-2.378,2.378H516.756a2.381,2.381,0,0,1-2.378-2.378v-23.779a2.381,2.381,0,0,1,2.378-2.378h11.89a1.189,1.189,0,1,0,0-2.378h-11.89a4.761,4.761,0,0,0-4.756,4.756v23.779a4.762,4.762,0,0,0,4.756,4.756Z" transform="translate(-512 -1023.997)" fill="#6e7d8d"/>
</svg>
