<svg xmlns="http://www.w3.org/2000/svg" width="39.724" height="37.242" viewBox="0 0 39.724 37.242">
  <path id="Path_1415" data-name="Path 1415" d="M1063.53,533.708a3.725,3.725,0,0,0-3.529-2.536h-9.036l-3.661-8.87a3.724,3.724,0,0,0-6.885,0l-3.659,8.87h-9.036a3.725,3.725,0,0,0-2.253,6.689l7.724,5.872-2.688,8.683a3.723,3.723,0,0,0,5.686,4.155l7.669-5.344,7.669,5.344a3.724,3.724,0,0,0,5.687-4.155l-2.687-8.683,7.724-5.872A3.724,3.724,0,0,0,1063.53,533.708Zm-2.778,2.177-9.107,6.922,3.2,10.342a1.24,1.24,0,0,1-1.895,1.384l-9.088-6.331-9.089,6.333a1.241,1.241,0,0,1-1.895-1.386l3.2-10.342-9.107-6.922a1.242,1.242,0,0,1,.751-2.23h10.7l4.294-10.4a1.24,1.24,0,0,1,2.293,0l4.294,10.4H1060a1.242,1.242,0,0,1,.751,2.23Z" transform="translate(-1024.002 -520)" fill="#6e7d8d"/>
</svg>
