<svg xmlns="http://www.w3.org/2000/svg" width="39.724" height="24.827" viewBox="0 0 39.724 24.827">
  <path id="Path_1408" data-name="Path 1408" d="M19.862,2102.207a6.207,6.207,0,1,1-6.207,6.207,6.207,6.207,0,0,1,6.207-6.207m0-1.241a7.448,7.448,0,1,0,7.448,7.448,7.456,7.456,0,0,0-7.448-7.448Zm12.414,1.241a1.241,1.241,0,1,1-1.241,1.241,1.241,1.241,0,0,1,1.241-1.241m0-1.241a2.483,2.483,0,1,0,2.483,2.483,2.486,2.486,0,0,0-2.483-2.483Zm2.483-2.483a2.49,2.49,0,0,1,2.483,2.483v14.9a2.49,2.49,0,0,1-2.483,2.483H4.966a2.49,2.49,0,0,1-2.483-2.483v-14.9a2.49,2.49,0,0,1,2.483-2.483H34.759m0-2.483H4.966A4.972,4.972,0,0,0,0,2100.965v14.9a4.972,4.972,0,0,0,4.966,4.966H34.759a4.972,4.972,0,0,0,4.965-4.966v-14.9A4.971,4.971,0,0,0,34.759,2096Zm-27.31,16.138a1.241,1.241,0,1,1-1.241,1.241,1.241,1.241,0,0,1,1.241-1.241m0-1.241a2.483,2.483,0,1,0,2.483,2.483,2.486,2.486,0,0,0-2.483-2.483Z" transform="translate(0 -2096)" fill="#6e7d8d"/>
</svg>
