<?xml version="1.0" encoding="utf-8"?>
<!-- Generator: Adobe Illustrator 23.0.3, SVG Export Plug-In . SVG Version: 6.00 Build 0)  -->
<svg version="1.1" id="Layer_1" xmlns="http://www.w3.org/2000/svg" xmlns:xlink="http://www.w3.org/1999/xlink" x="0px" y="0px"
	 viewBox="0 0 32 32" style="enable-background:new 0 0 32 32;" xml:space="preserve">
<style type="text/css">
	.st0{fill:#6E7D8C;}
</style>
<g>
	<path class="st0" d="M16,0C7.2,0,0,7.2,0,16s7.2,16,16,16s16-7.2,16-16S24.8,0,16,0z M16,29.5c-7.4,0-13.5-6-13.5-13.5
		S8.6,2.5,16,2.5s13.5,6,13.5,13.5S23.4,29.5,16,29.5z"/>
	<path class="st0" d="M14.9,10.3c-0.2-0.1-0.3-0.1-0.5-0.1c-0.3,0-0.5,0.1-0.6,0.2c-0.2,0.1-0.3,0.3-0.3,0.4
		c-0.1,0.2-0.2,0.4-0.3,0.8l-2.6,7.6L8,11.7c-0.2-0.5-0.3-0.9-0.5-1.1c-0.2-0.2-0.4-0.4-0.8-0.4c-0.3,0-0.6,0.1-0.8,0.3
		S5.5,11,5.5,11.2c0,0.1,0,0.2,0,0.4c0,0.1,0.1,0.3,0.1,0.4c0,0.1,0.1,0.3,0.1,0.4l2.7,7.3c0.1,0.3,0.2,0.5,0.3,0.8
		C8.9,20.7,9,21,9.2,21.2c0.1,0.2,0.3,0.4,0.5,0.5c0.2,0.1,0.5,0.2,0.8,0.2c0.3,0,0.6-0.1,0.8-0.2c0.2-0.1,0.4-0.3,0.5-0.5
		c0.1-0.2,0.2-0.4,0.3-0.7c0.1-0.3,0.2-0.5,0.3-0.8l2.7-7.3c0-0.1,0.1-0.3,0.1-0.4c0-0.1,0.1-0.3,0.1-0.4c0-0.1,0-0.3,0-0.4
		c0-0.2,0-0.3-0.1-0.5C15.2,10.6,15,10.4,14.9,10.3z"/>
	<path class="st0" d="M26.2,20.1c-0.2-0.4-0.4-0.8-0.7-1.3c-0.3-0.5-0.6-0.9-1-1.3s-0.8-0.7-1.2-1c1-0.2,1.7-0.6,2.2-1.1
		c0.5-0.5,0.7-1.2,0.7-2c0-0.4-0.1-0.8-0.2-1.2c-0.1-0.4-0.3-0.7-0.6-1s-0.6-0.5-0.9-0.6c-0.3-0.1-0.6-0.2-1-0.3
		c-0.4,0-0.8-0.1-1.3-0.1h-3.7c-0.5,0-0.8,0.1-1.1,0.3c-0.2,0.2-0.3,0.6-0.3,1.1v8.7c0,0.5,0.1,0.8,0.3,1c0.2,0.2,0.5,0.4,0.8,0.4
		c0.3,0,0.6-0.1,0.8-0.3c0.2-0.2,0.3-0.6,0.3-1.1v-3.6h0.8c0.4,0,0.7,0.1,1,0.2c0.3,0.1,0.5,0.3,0.8,0.6c0.3,0.3,0.6,0.7,0.9,1.3
		l0.9,1.5c0.2,0.4,0.4,0.6,0.5,0.8c0.1,0.2,0.3,0.3,0.4,0.5c0.2,0.1,0.4,0.2,0.6,0.2c0.2,0,0.4,0,0.6-0.1c0.2-0.1,0.3-0.2,0.4-0.3
		c0.1-0.1,0.1-0.3,0.1-0.4C26.5,20.8,26.4,20.5,26.2,20.1z M22.8,15c-0.4,0.1-0.8,0.1-1.4,0.1h-2v-3.1h2.1c0.8,0,1.3,0.1,1.6,0.2
		c0.3,0.1,0.5,0.3,0.7,0.5c0.2,0.2,0.2,0.5,0.2,0.8c0,0.4-0.1,0.7-0.3,0.9C23.5,14.8,23.2,14.9,22.8,15z"/>
</g>
</svg>
