<svg xmlns="http://www.w3.org/2000/svg" width="36" height="39.723" viewBox="0 0 36 39.723">
  <path id="Path_1411" data-name="Path 1411" d="M2096.276,2055.448l3.724-3.724h-3.724V2048l-3.724,3.724v2.846l-1.456,1.456a16.132,16.132,0,1,0-18.886,25.887l-1.887,4.044a1.241,1.241,0,0,0,2.25,1.049l1.885-4.041a16.122,16.122,0,0,0,11.359,0l1.885,4.041a1.241,1.241,0,1,0,2.25-1.049l-1.887-4.044a16.121,16.121,0,0,0,3.907-25.011l1.455-1.456h2.848Zm-2.483,12.414a13.656,13.656,0,1,1-4.449-10.084l-3.521,3.521a8.707,8.707,0,1,0,.878.878l3.521-3.521A13.606,13.606,0,0,1,2093.793,2067.862Zm-11.5-3.035a3.726,3.726,0,1,0,.878.878l2.652-2.652a7.468,7.468,0,1,1-.878-.877Z" transform="translate(-2064 -2048)" fill="#6e7d8d"/>
</svg>
