<svg xmlns="http://www.w3.org/2000/svg" width="39.724" height="34.758" viewBox="0 0 39.724 34.758">
  <path id="Path_1414" data-name="Path 1414" d="M6178.759,4628.965h-4.966v-2.482a2.482,2.482,0,0,0-2.482-2.483h-24.828a2.482,2.482,0,0,0-2.483,2.483v27.31a35705.318,35705.318,0,0,0,4.966,4.965h19.862a17851.781,17851.781,0,0,0,4.965-4.965v-2.483h4.966a4.971,4.971,0,0,0,4.965-4.965v-12.414A4.971,4.971,0,0,0,6178.759,4628.965Zm-29.793,27.311v-1.242h19.862v1.242Zm22.345-2.483h-24.828v-27.31h24.828Zm2.482-18.621h3.725v9.931h-3.725Zm7.448,11.172a2.49,2.49,0,0,1-2.482,2.483h-4.966v-2.483h3.725a1.241,1.241,0,0,0,1.241-1.241v-9.931a1.241,1.241,0,0,0-1.241-1.241h-3.725v-2.483h4.966a2.49,2.49,0,0,1,2.482,2.483Z" transform="translate(-6144 -4624)" fill="#6e7d8d"/>
</svg>
