<svg xmlns="http://www.w3.org/2000/svg" width="39.726" height="27.312" viewBox="0 0 39.726 27.312">
  <path id="Path_1416" data-name="Path 1416" d="M5671.4,6725.076a2.483,2.483,0,0,0-.033-2.5l-.914-1.524a2.478,2.478,0,0,0,.914-3.442l-7.448-12.414a2.482,2.482,0,0,0-2.129-1.206h-19.862a2.482,2.482,0,0,0-2.129,1.206l-7.448,12.414a2.486,2.486,0,0,0-.031,2.5,2.456,2.456,0,0,0,.946.94l-.914,1.524a2.487,2.487,0,0,0-.031,2.5,2.458,2.458,0,0,0,.946.94l-.914,1.524a2.484,2.484,0,0,0,2.129,3.761h34.759a2.483,2.483,0,0,0,2.127-3.761l-.914-1.524A2.465,2.465,0,0,0,5671.4,6725.076Zm-35.429-3.706h1.532l-1.49,2.482h-1.532Zm1.49,2.482,1.49-2.482h25.821l1.489,2.482Zm2.979-4.965,1.489-2.483h19.862l1.49,2.483Zm25.778,2.483h1.532l1.49,2.482H5667.7Zm-1.489-2.483-1.873-3.122a1.241,1.241,0,0,0-1.064-.6h-19.862a1.241,1.241,0,0,0-1.064.6l-1.873,3.122h-1.532l4.469-7.448h19.862l4.469,7.448Zm-28.758,7.448h31.779l1.49,2.483h-34.759Zm5.958-19.862h19.862l7.448,12.414H5667.7l-4.852-8.088a1.242,1.242,0,0,0-1.064-.6h-19.862a1.243,1.243,0,0,0-1.064.6l-4.852,8.088h-1.532Z" transform="translate(-5631.993 -6703.99)" fill="#6e7d8d"/>
</svg>
