<svg xmlns="http://www.w3.org/2000/svg" width="39.724" height="29.793" viewBox="0 0 39.724 29.793">
  <path id="Path_1412" data-name="Path 1412" d="M1570.759,7202.482a2.49,2.49,0,0,1,2.483,2.483v19.862a2.49,2.49,0,0,1-2.483,2.483h-29.793a2.49,2.49,0,0,1-2.483-2.483v-19.862a2.49,2.49,0,0,1,2.483-2.483h29.793m0-2.482h-29.793a4.972,4.972,0,0,0-4.966,4.965v19.862a4.972,4.972,0,0,0,4.966,4.966h29.793a4.972,4.972,0,0,0,4.966-4.966v-19.862a4.971,4.971,0,0,0-4.966-4.965Zm-1.241,6.207v3.724h-27.31v-3.724h27.31m0-1.242h-27.31a1.241,1.241,0,0,0-1.241,1.242v3.724a1.241,1.241,0,0,0,1.241,1.242h27.31a1.241,1.241,0,0,0,1.241-1.242v-3.724a1.241,1.241,0,0,0-1.241-1.242Zm-22.345,9.931v8.689h-4.965V7214.9h4.965m0-1.241h-4.965a1.241,1.241,0,0,0-1.241,1.241v8.689a1.241,1.241,0,0,0,1.241,1.241h4.965a1.241,1.241,0,0,0,1.241-1.241V7214.9a1.241,1.241,0,0,0-1.241-1.241Zm22.345,1.241v8.689h-17.379V7214.9h17.379m0-1.241h-17.379a1.241,1.241,0,0,0-1.241,1.241v8.689a1.241,1.241,0,0,0,1.241,1.241h17.379a1.241,1.241,0,0,0,1.241-1.241V7214.9a1.241,1.241,0,0,0-1.241-1.241Z" transform="translate(-1536 -7200)" fill="#6e7d8d"/>
</svg>
