<?xml version="1.0" encoding="utf-8"?>
<!-- Generator: Adobe Illustrator 16.0.0, SVG Export Plug-In . SVG Version: 6.00 Build 0)  -->
<!DOCTYPE svg PUBLIC "-//W3C//DTD SVG 1.1//EN" "http://www.w3.org/Graphics/SVG/1.1/DTD/svg11.dtd">
<svg version="1.1" xmlns="http://www.w3.org/2000/svg" xmlns:xlink="http://www.w3.org/1999/xlink" x="0px" y="0px" width="100px"
	 height="100px" viewBox="0 0 100 100" enable-background="new 0 0 100 100" xml:space="preserve">
<g id="Layer_1">
	<title>icon-Stats</title>
	<rect fill="#F4F6F9" width="100" height="100"/>
</g>
<g id="Layer_3" display="none">
	<g display="inline">
		<path fill="none" d="M17.133,19.755v10.346c0-5.703,4.562-10.264,10.182-10.264H74.07c5.62,0,10.181,4.643,10.181,10.264v37.062
			c0.083,5.701-4.479,10.345-10.099,10.345H57.291v-6.842h16.861c1.874,0,3.421-1.548,3.421-3.422V30.101
			c0-1.874-1.547-3.422-3.421-3.422H27.315c-1.873,0-3.421,1.548-3.421,3.422v6.76h-6.761v40.727h3.991
			c-2.117,0-3.828-1.712-3.828-3.827c0-2.119,1.711-3.83,3.828-3.83c2.118,0,3.829,1.711,3.829,3.83c0,2.115-1.71,3.827-3.829,3.827
			h12.789c0-9.205-7.413-16.779-16.617-16.779V56.41c11.566,0.081,20.933,9.53,20.933,21.178h7.657
			c-0.082-15.884-12.87-28.834-28.59-28.834v-4.399c18.165,0,32.908,14.907,32.908,33.233h34.129V19.755H17.133z"/>
		<path fill="#6C7B8C" d="M23.895,30.101c0-1.874,1.548-3.422,3.421-3.422h46.837c1.874,0,3.421,1.548,3.421,3.422v37.143
			c0,1.874-1.547,3.422-3.421,3.422H57.291v6.842h16.861c5.619,0,10.182-4.644,10.099-10.345V30.101
			c0-5.621-4.561-10.264-10.181-10.264H27.315c-5.621,0-10.182,4.561-10.182,10.264v6.76h6.761V30.101z"/>
		<path fill="#6C7B8C" d="M17.296,44.354v4.399c15.721,0,28.509,12.951,28.59,28.834h4.318
			C50.205,59.262,35.461,44.354,17.296,44.354z"/>
		<path fill="#6C7B8C" d="M17.296,56.41v4.398c9.204,0,16.617,7.574,16.617,16.779h4.316C38.229,65.94,28.863,56.491,17.296,56.41z"
			/>
		<path fill="#6C7B8C" d="M24.953,73.761c0-2.119-1.71-3.83-3.829-3.83c-2.117,0-3.828,1.711-3.828,3.83
			c0,2.115,1.711,3.827,3.828,3.827C23.243,77.588,24.953,75.876,24.953,73.761z"/>
	</g>
</g>
<g id="Layer_4">
	<g>
		<path fill="none" d="M46.309,39.824c0.873,0,1.671-0.508,2.035-1.452c0.145-0.291,0.218-0.509,0.218-0.872
			c0-0.581-0.291-1.162-0.727-1.598c-0.436-0.363-0.944-0.581-1.526-0.581c-1.234,0-2.25,1.017-2.25,2.251
			C44.058,38.807,45.075,39.824,46.309,39.824z"/>
		<path fill="none" d="M50.086,34.958c0.29,0.146,0.58,0.218,0.871,0.218s0.582-0.073,0.871-0.218
			c0.219-0.072,0.438-0.218,0.581-0.363c0.509-0.363,0.799-1.017,0.799-1.67c0-0.653-0.29-1.234-0.799-1.67
			c-0.435-0.291-0.944-0.582-1.38-0.582c-1.234,0-2.25,1.017-2.25,2.251C48.779,33.796,49.287,34.595,50.086,34.958z"/>
		<path fill="none" d="M50.957,44.544c0.072,0,0.145,0,0.291,0c0.727-0.073,1.38-0.509,1.743-1.162
			c0.145-0.363,0.217-0.726,0.217-1.089c0-0.654-0.29-1.234-0.799-1.67c-0.362-0.363-0.87-0.581-1.452-0.581
			c-1.234,0-2.251,1.017-2.251,2.251c0,0.508,0.218,1.017,0.508,1.38C49.65,44.181,50.231,44.544,50.957,44.544z"/>
		<path fill="none" d="M76.957,39.824c1.234,0,2.251-1.017,2.251-2.251c0-1.234-1.017-2.251-2.251-2.251
			c-1.235,0-2.252,1.017-2.252,2.251C74.705,38.807,75.722,39.824,76.957,39.824z"/>
		<path fill="none" d="M67.733,39.824c1.162,0,2.179-1.017,2.251-2.251c0-1.234-1.016-2.251-2.251-2.251
			c-1.234,0-2.252,1.017-2.252,2.251C65.481,38.807,66.499,39.824,67.733,39.824z"/>
		<path fill="none" d="M72.382,35.176c1.161,0,2.178-1.017,2.251-2.251c0-1.234-1.018-2.251-2.251-2.251
			c-1.234,0-2.252,1.017-2.252,2.251C70.13,34.159,71.147,35.176,72.382,35.176z"/>
		<path fill="none" d="M72.382,44.544c1.161,0,2.178-1.017,2.251-2.251c0-1.234-1.018-2.251-2.251-2.251
			c-1.234,0-2.252,1.017-2.252,2.251S71.147,44.544,72.382,44.544z"/>
		<path fill="none" d="M55.605,39.824c0.072,0,0.145,0,0.291,0c0.727-0.073,1.378-0.581,1.741-1.38
			c0.146-0.29,0.219-0.508,0.219-0.872c0-1.234-1.018-2.251-2.251-2.251c-1.235,0-2.251,1.017-2.251,2.251
			C53.354,38.807,54.37,39.824,55.605,39.824z"/>
		<path fill="none" d="M31.058,38.589v4.648c0.581,0.145,1.162,0.218,1.743,0.218s1.089-0.073,1.67-0.218v-4.721h4.575
			c0.073-0.509,0.145-1.017,0.073-1.453c0-0.654-0.073-1.307-0.291-1.961h-4.43v-4.212c-0.509-0.146-1.089-0.218-1.671-0.218
			c-0.581,0-1.161,0.073-1.743,0.218v4.212h-4.285c-0.145,0.581-0.291,1.235-0.291,1.961c0,0.508,0.073,1.017,0.218,1.525H31.058z"
			/>
		<path fill="none" d="M72.31,26.025c0.145,0,4.793,0,6.753,1.743c1.962,1.598,2.761,4.357,2.761,4.503l4.865,18.447
			c0,0.072,1.089,3.85-2.905,5.229c-1.09,0.508-2.033,0.652-2.831,0.652c-0.074,0-0.147,0-0.219,0c-0.072,0-0.145,0-0.219,0
			c-0.072,0-0.145,0-0.217,0s-0.219,0-0.291,0h-0.072c-1.452-0.29-2.47-1.162-2.832-1.597c-0.073-0.073-0.146-0.146-0.146-0.146
			c0-0.074,0-0.074,0-0.074l-4.067-5.881h-5.883l-4.502-17.285c-0.146-0.581-1.161-3.631-3.414-5.592h-8.206
			c0.072,0,0.654,0,1.452,0.073c1.525,0.145,3.995,0.581,5.301,1.67c1.962,1.598,2.761,4.357,2.688,4.285l4.357,16.704l0.436,1.742
			c0.072,0.072,1.089,3.849-2.687,5.521c-1.089,0.508-2.034,0.653-2.833,0.653c-0.072,0-0.146,0-0.218,0c-0.073,0-0.146,0-0.218,0
			c-0.073,0-0.146,0-0.218,0c-0.073,0-0.219,0-0.291,0h-0.072c-1.452-0.29-2.47-1.163-2.833-1.599
			c-0.072-0.071-0.145-0.145-0.145-0.145c0-0.072,0-0.072,0-0.072l-4.066-5.883H36.941c-0.872-0.727-1.889-1.453-2.905-2.106
			c-4.213-2.76-8.788-4.503-13.654-5.302l2.469-9.295c0-0.073,0.872-2.905,2.76-4.503c1.96-1.743,6.536-1.743,6.753-1.743H14.5
			v47.569c0-2.179,1.743-3.922,3.921-3.922c2.179,0,3.922,1.743,3.922,3.922s-1.743,3.922-3.922,3.922
			c-2.179,0-3.921-1.743-3.921-3.922v3.994h29.268c0-9.369-4.358-17.721-11.111-23.093c-1.017-0.801-2.034-1.527-3.123-2.18
			c-0.291-0.218-0.654-0.363-1.017-0.581c-1.235-0.654-2.542-1.235-3.849-1.743c-1.888-0.726-3.922-1.234-5.955-1.525h-0.073
			c-1.379-0.218-2.687-0.291-4.067-0.291v-4.502c0.436,0,0.872,0,1.38,0c1.307,0,2.614,0.145,3.849,0.363
			c1.67,0.291,3.268,0.654,4.866,1.162c2.832,0.944,5.519,2.179,8.061,3.849c1.744,1.162,3.341,2.396,4.867,3.849
			c6.536,6.101,10.603,14.888,10.603,24.692h38.636V26.025H72.31z M23.433,57.907c0.363,0.218,0.799,0.363,1.235,0.581
			c1.307,0.652,2.469,1.453,3.559,2.396c4.72,3.993,7.771,9.95,7.771,16.631h-4.43c0-5.156-2.324-9.805-5.883-12.928
			c-0.29-0.289-0.654-0.58-1.017-0.799c-2.833-2.105-6.319-3.34-10.095-3.34v-2.542v-1.96
			C17.695,55.947,20.673,56.673,23.433,57.907z"/>
		<path fill="#6C7B8C" d="M62.505,31.617l4.502,17.285h5.883l4.067,5.881c0,0,0,0,0,0.074c0,0,0.072,0.072,0.146,0.146
			c0.362,0.435,1.38,1.307,2.832,1.597h0.072c0.072,0,0.219,0,0.291,0s0.145,0,0.217,0c0.074,0,0.146,0,0.219,0
			c0.071,0,0.145,0,0.219,0c0.798,0,1.741-0.145,2.831-0.652c3.994-1.38,2.905-5.157,2.905-5.229l-4.865-18.447
			c0-0.146-0.799-2.905-2.761-4.503c-1.96-1.743-6.608-1.743-6.753-1.743H59.091C61.344,27.986,62.358,31.036,62.505,31.617z
			 M76.957,35.321c1.234,0,2.251,1.017,2.251,2.251c0,1.235-1.017,2.251-2.251,2.251c-1.235,0-2.252-1.017-2.252-2.251
			C74.705,36.338,75.722,35.321,76.957,35.321z M72.382,30.673c1.233,0,2.251,1.017,2.251,2.251
			c-0.073,1.235-1.09,2.251-2.251,2.251c-1.234,0-2.252-1.017-2.252-2.251C70.13,31.69,71.147,30.673,72.382,30.673z M72.382,40.042
			c1.233,0,2.251,1.017,2.251,2.251c-0.073,1.234-1.09,2.251-2.251,2.251c-1.234,0-2.252-1.017-2.252-2.251
			S71.147,40.042,72.382,40.042z M67.733,35.321c1.235,0,2.251,1.017,2.251,2.251c-0.072,1.235-1.089,2.251-2.251,2.251
			c-1.234,0-2.252-1.017-2.252-2.251C65.481,36.338,66.499,35.321,67.733,35.321z"/>
		<path fill="#6C7B8C" d="M22.852,32.271l-2.469,9.295c4.866,0.799,9.441,2.542,13.654,5.302c1.016,0.653,2.033,1.379,2.905,2.106
			h14.598l4.066,5.883c0,0,0,0,0,0.072c0,0,0.072,0.073,0.145,0.145c0.363,0.436,1.381,1.309,2.833,1.599h0.072
			c0.072,0,0.218,0,0.291,0c0.072,0,0.145,0,0.218,0c0.072,0,0.145,0,0.218,0c0.072,0,0.146,0,0.218,0
			c0.799,0,1.744-0.146,2.833-0.653c3.775-1.672,2.759-5.448,2.687-5.521l-0.436-1.742l-4.357-16.704
			c0.072,0.073-0.727-2.687-2.688-4.285c-1.306-1.089-3.775-1.525-5.301-1.67c-0.798-0.073-1.38-0.073-1.452-0.073h-18.52
			c-0.218,0-4.793,0-6.753,1.743C23.723,29.366,22.852,32.198,22.852,32.271z M55.605,35.321c1.233,0,2.251,1.017,2.251,2.251
			c0,0.363-0.072,0.582-0.219,0.872c-0.363,0.799-1.015,1.307-1.741,1.38c-0.146,0-0.219,0-0.291,0
			c-1.235,0-2.251-1.017-2.251-2.251C53.354,36.338,54.37,35.321,55.605,35.321z M51.029,30.673c0.436,0,0.945,0.291,1.38,0.582
			c0.509,0.436,0.799,1.017,0.799,1.67c0,0.654-0.29,1.307-0.799,1.67c-0.144,0.145-0.362,0.291-0.581,0.363
			c-0.289,0.146-0.58,0.218-0.871,0.218s-0.581-0.073-0.871-0.218c-0.799-0.363-1.308-1.162-1.308-2.033
			C48.779,31.69,49.795,30.673,51.029,30.673z M50.957,40.042c0.582,0,1.09,0.218,1.452,0.581c0.509,0.436,0.799,1.017,0.799,1.67
			c0,0.363-0.072,0.726-0.217,1.089c-0.363,0.653-1.017,1.089-1.743,1.162c-0.146,0-0.219,0-0.291,0
			c-0.726,0-1.307-0.363-1.743-0.872c-0.29-0.363-0.508-0.872-0.508-1.38C48.706,41.059,49.723,40.042,50.957,40.042z
			 M46.309,35.321c0.582,0,1.09,0.218,1.526,0.581c0.436,0.436,0.727,1.017,0.727,1.598c0,0.363-0.073,0.581-0.218,0.872
			c-0.363,0.944-1.162,1.452-2.035,1.452c-1.234,0-2.25-1.017-2.25-2.251C44.058,36.338,45.075,35.321,46.309,35.321z
			 M26.701,35.103h4.285v-4.212c0.582-0.146,1.162-0.218,1.743-0.218c0.582,0,1.162,0.073,1.671,0.218v4.212h4.43
			c0.218,0.654,0.291,1.307,0.291,1.961c0.072,0.436,0,0.944-0.073,1.453h-4.575v4.721c-0.582,0.145-1.089,0.218-1.67,0.218
			s-1.162-0.073-1.743-0.218v-4.648h-4.43c-0.145-0.509-0.218-1.017-0.218-1.525C26.41,36.338,26.556,35.684,26.701,35.103z"/>
		<path fill="#6C7B8C" d="M37.595,52.896c-1.526-1.452-3.123-2.687-4.867-3.849c-2.542-1.67-5.229-2.905-8.061-3.849
			c-1.598-0.508-3.196-0.871-4.866-1.162c-1.235-0.218-2.542-0.363-3.849-0.363c-0.509,0-0.944,0-1.38,0v4.502
			c1.38,0,2.688,0.073,4.067,0.291h0.073c2.033,0.291,4.067,0.8,5.955,1.525c1.307,0.508,2.614,1.089,3.849,1.743
			c0.363,0.218,0.726,0.363,1.017,0.581c1.089,0.652,2.106,1.379,3.123,2.18c6.753,5.372,11.111,13.724,11.111,23.093h4.43
			C48.198,67.783,44.13,58.996,37.595,52.896z"/>
		<path fill="#6C7B8C" d="M14.572,57.907v2.542c3.776,0,7.263,1.234,10.095,3.34c0.363,0.219,0.727,0.51,1.017,0.799
			c3.559,3.123,5.883,7.771,5.883,12.928h4.43c0-6.681-3.05-12.638-7.771-16.631c-1.089-0.943-2.251-1.744-3.559-2.396
			c-0.436-0.218-0.872-0.363-1.235-0.581c-2.759-1.234-5.737-1.96-8.86-1.96V57.907z"/>
		<path fill="#6C7B8C" d="M18.421,77.516c2.179,0,3.922-1.743,3.922-3.922s-1.743-3.922-3.922-3.922
			c-2.179,0-3.921,1.743-3.921,3.922S16.243,77.516,18.421,77.516z"/>
	</g>
</g>
</svg>
