<?xml version="1.0" encoding="utf-8"?>
<!-- Generator: Adobe Illustrator 16.0.0, SVG Export Plug-In . SVG Version: 6.00 Build 0)  -->
<!DOCTYPE svg PUBLIC "-//W3C//DTD SVG 1.1//EN" "http://www.w3.org/Graphics/SVG/1.1/DTD/svg11.dtd">
<svg version="1.1" xmlns="http://www.w3.org/2000/svg" xmlns:xlink="http://www.w3.org/1999/xlink" x="0px" y="0px" width="100px"
	 height="100px" viewBox="0 0 100 100" enable-background="new 0 0 100 100" xml:space="preserve">
<g id="Layer_1">
	<title>icon-Stats</title>
	<rect fill="#F4F6F9" width="100" height="100"/>
</g>
<g id="Layer_2" display="none">
	<g display="inline">
		<path fill="none" stroke="#6C7B8C" stroke-width="2.5" stroke-miterlimit="10" d="M50,16.833c-17.648,0-32,14.352-32,32
			c0,17.647,14.352,32,32,32c17.647,0,32-14.353,32-32C82,31.185,67.647,16.833,50,16.833z"/>
	</g>
	<g display="inline">
		<polygon fill="#6C7B8C" points="40.755,63.056 64.934,48.833 40.755,34.611 		"/>
		<path fill="#6C7B8C" d="M40.755,63.056V34.611l24.178,14.222L40.755,63.056z"/>
	</g>
</g>
<g id="Layer_3">
	<g>
		<g transform="translate(-429.000000, -285.000000)">
			<path fill="none" stroke="#6C7B8C" stroke-width="2.5" stroke-miterlimit="10" d="M451.985,307.556h54.031v3.658l-22.333,22.353
				c-0.267,0.267-0.416,0.628-0.416,1.005v24.863l-8.532,6.401v-31.265c0-0.377-0.149-0.738-0.416-1.005l-22.334-22.353V307.556z"/>
		</g>
	</g>
</g>
</svg>
