<svg xmlns="http://www.w3.org/2000/svg" viewBox="0 0 80 80"><title>icon-wishlists</title><rect width="80" height="80" style="fill:#f4f6f9"/><polygon points="56.48 27.26 56.48 61.82 20.25 61.82 20.25 18.18 47.4 18.18 56.48 27.26" style="fill:none;stroke:#6c7b8c;stroke-miterlimit:10;stroke-width:2px"/><line x1="26.98" y1="54.22" x2="49.75" y2="54.22" style="fill:none;stroke:#6c7b8c;stroke-miterlimit:10;stroke-width:2px"/><line x1="26.98" y1="45.93" x2="49.75" y2="45.93" style="fill:none;stroke:#6c7b8c;stroke-miterlimit:10;stroke-width:2px"/><line x1="26.98" y1="37.64" x2="49.75" y2="37.64" style="fill:none;stroke:#6c7b8c;stroke-miterlimit:10;stroke-width:2px"/><line x1="26.98" y1="29.35" x2="49.75" y2="29.35" style="fill:none;stroke:#6c7b8c;stroke-miterlimit:10;stroke-width:2px"/><path d="M51.15,44.89l-7.73-9.63a4,4,0,1,1,6.24-5l1.49,1.85,1.48-1.85a4,4,0,1,1,6.24,5Z" style="fill:none;stroke:#f4f6f9;stroke-miterlimit:10;stroke-width:7px"/><path d="M51.15,44.89l-7.73-9.63a4,4,0,1,1,6.24-5l1.49,1.85,1.48-1.85a4,4,0,1,1,6.24,5Z" style="fill:#f4f6f9;stroke:#6c7b8c;stroke-miterlimit:10;stroke-width:2px"/></svg>