<?xml version="1.0" encoding="utf-8"?>
<!-- Generator: Adobe Illustrator 16.0.0, SVG Export Plug-In . SVG Version: 6.00 Build 0)  -->
<!DOCTYPE svg PUBLIC "-//W3C//DTD SVG 1.1//EN" "http://www.w3.org/Graphics/SVG/1.1/DTD/svg11.dtd">
<svg version="1.1" xmlns="http://www.w3.org/2000/svg" xmlns:xlink="http://www.w3.org/1999/xlink" x="0px" y="0px" width="100px"
	 height="100px" viewBox="0 0 100 100" enable-background="new 0 0 100 100" xml:space="preserve">
<g id="Layer_1">
	<title>icon-Stats</title>
	<rect fill="#F4F6F9" width="100" height="100"/>
</g>
<g id="Layer_5">
	<g transform="translate(0,-280.06665)">
		<path fill="#6C7B8C" d="M68.478,299.146c-0.109,0.003-0.219,0.021-0.324,0.057l-27.002,9.001
			c-0.459,0.153-0.769,0.583-0.769,1.068v11.197c-0.002,0.038-0.002,0.075,0,0.111v22.143c-1.651-1.879-4.064-3.07-6.751-3.07
			c-4.958,0-9.001,4.043-9.001,9c0,4.959,4.043,9.002,9.001,9.002c4.918,0,8.931-3.98,8.995-8.885
			c0.004-0.037,0.006-0.078,0.006-0.117v-27.318l24.753-8.25v20.636c-1.652-1.877-4.064-3.07-6.752-3.07c-4.957,0-9,4.043-9,9.002
			c0,4.957,4.043,9,9,9c4.918,0,8.932-3.98,8.996-8.883c0.004-0.039,0.006-0.078,0.006-0.117v-27.939
			c0.021-0.126,0.021-0.254,0-0.38v-11.063C69.636,299.636,69.112,299.127,68.478,299.146L68.478,299.146z"/>
	</g>
</g>
</svg>
