<svg xmlns="http://www.w3.org/2000/svg" viewBox="0 0 80 80"><title>icon-Achievements</title><rect width="80" height="80" style="fill:#f4f6f9"/><path d="M21,23.73V30.9a5.73,5.73,0,0,0,11.45,0V23.73Z" style="fill:none;stroke:#6c7b8c;stroke-miterlimit:10;stroke-width:2px"/><path d="M47.56,23.73V30.9A5.73,5.73,0,0,0,59,30.9V23.73Z" style="fill:none;stroke:#6c7b8c;stroke-miterlimit:10;stroke-width:2px"/><polygon points="44.84 57.53 35.16 57.53 37.16 40.95 42.84 40.95 44.84 57.53" style="fill:#f4f6f9;stroke:#6c7b8c;stroke-miterlimit:10;stroke-width:2px"/><rect x="29.71" y="57.53" width="21.19" height="5.45" style="fill:#f4f6f9;stroke:#6c7b8c;stroke-miterlimit:10;stroke-width:2px"/><path d="M40,48.32h0A10.79,10.79,0,0,1,29.31,39L26.18,17H53.82L50.69,39A10.79,10.79,0,0,1,40,48.32Z" style="fill:#f4f6f9;stroke:#6c7b8c;stroke-miterlimit:10;stroke-width:2px"/></svg>