<?xml version="1.0" encoding="utf-8"?>
<!-- Generator: Adobe Illustrator 16.0.0, SVG Export Plug-In . SVG Version: 6.00 Build 0)  -->
<!DOCTYPE svg PUBLIC "-//W3C//DTD SVG 1.1//EN" "http://www.w3.org/Graphics/SVG/1.1/DTD/svg11.dtd">
<svg version="1.1" id="Layer_1" xmlns="http://www.w3.org/2000/svg" xmlns:xlink="http://www.w3.org/1999/xlink" x="0px" y="0px"
	 width="100px" height="100px" viewBox="0 0 100 100" enable-background="new 0 0 100 100" xml:space="preserve">
<g id="Layer_1_1_">
	<title>icon-Stats</title>
	<rect fill="#F4F6F9" width="100" height="100"/>
</g>
<g id="Layer_3">
	<g>
		<path fill="none" d="M21.466,23.484v9.012c0-4.968,3.974-8.941,8.869-8.941h40.726c4.895,0,8.868,4.044,8.868,8.941v32.282
			c0.072,4.966-3.901,9.011-8.797,9.011H56.445V67.83h14.687c1.632,0,2.98-1.349,2.98-2.981V32.496c0-1.633-1.349-2.98-2.98-2.98
			H30.335c-1.632,0-2.98,1.348-2.98,2.98v5.888h-5.889v35.475h3.477c-1.844,0-3.334-1.491-3.334-3.333
			c0-1.845,1.49-3.336,3.334-3.336c1.845,0,3.335,1.491,3.335,3.336c0,1.842-1.49,3.333-3.335,3.333h11.14
			c0-8.018-6.457-14.615-14.474-14.615v-3.831c10.075,0.071,18.233,8.301,18.233,18.446h6.67
			c-0.071-13.835-11.21-25.115-24.903-25.115v-3.832c15.822,0,28.664,12.985,28.664,28.947H80V23.484H21.466z"/>
		<path fill="#6C7B8C" d="M27.356,32.496c0-1.633,1.348-2.98,2.98-2.98h40.796c1.634,0,2.981,1.348,2.981,2.98v32.353
			c0,1.633-1.348,2.981-2.981,2.981H56.445v5.959h14.687c4.896,0,8.869-4.045,8.797-9.011V32.496c0-4.896-3.974-8.941-8.868-8.941
			H30.335c-4.896,0-8.869,3.973-8.869,8.941v5.888h5.889L27.356,32.496L27.356,32.496z"/>
		<path fill="#6C7B8C" d="M21.608,44.911v3.832c13.694,0,24.833,11.281,24.903,25.115h3.761
			C50.273,57.896,37.43,44.911,21.608,44.911z"/>
		<path fill="#6C7B8C" d="M21.608,55.412v3.831c8.017,0,14.474,6.597,14.474,14.614h3.759
			C39.841,63.713,31.683,55.483,21.608,55.412z"/>
		<path fill="#6C7B8C" d="M28.278,70.525c0-1.845-1.49-3.336-3.335-3.336c-1.844,0-3.334,1.491-3.334,3.336
			c0,1.842,1.49,3.333,3.334,3.333C26.788,73.858,28.278,72.367,28.278,70.525z"/>
	</g>
</g>
</svg>
