<svg xmlns="http://www.w3.org/2000/svg" viewBox="0 0 80 80"><title>icon-Matchmaking &amp;amp; lobbies</title><rect width="80" height="80" style="fill:#f4f6f9"/><path d="M50.3,33.37h0A6.63,6.63,0,0,0,43.67,40V50.44H56.92V40A6.62,6.62,0,0,0,50.3,33.37Z" style="fill:#6c7b8c"/><circle cx="50.24" cy="27.66" r="5.77" style="fill:#6c7b8c"/><rect x="44.98" y="49.62" width="4.02" height="8.49" style="fill:#6c7b8c"/><rect x="51.59" y="49.62" width="4.02" height="8.49" style="fill:#6c7b8c"/><rect x="52.08" y="31.94" width="13.55" height="3.01" transform="translate(-8.7 37.7) rotate(-33.22)" style="fill:#6c7b8c"/><path d="M29.7,33.37h0A6.63,6.63,0,0,1,36.33,40V50.44H23.08V40A6.62,6.62,0,0,1,29.7,33.37Z" style="fill:#6c7b8c"/><circle cx="29.76" cy="27.66" r="5.77" style="fill:#6c7b8c"/><rect x="31" y="49.62" width="4.02" height="8.49" style="fill:#6c7b8c"/><rect x="24.39" y="49.62" width="4.02" height="8.49" style="fill:#6c7b8c"/><rect x="19.64" y="26.67" width="3.01" height="13.55" transform="translate(-18.42 32.81) rotate(-56.78)" style="fill:#6c7b8c"/></svg>