<svg xmlns="http://www.w3.org/2000/svg" viewBox="0 0 80 80"><title>icon-OpenID</title><rect width="80" height="80" style="fill:#f4f6f9"/><path d="M40,26.18h0a6.24,6.24,0,0,0-6.24,6.24v9.85H46.24V32.42A6.24,6.24,0,0,0,40,26.18Z" style="fill:#6c7b8c"/><circle cx="39.95" cy="20.8" r="5.43" style="fill:#6c7b8c"/><rect x="34.99" y="41.49" width="3.79" height="7.99" style="fill:#6c7b8c"/><rect x="41.22" y="41.49" width="3.79" height="7.99" style="fill:#6c7b8c"/><rect x="42.26" y="24.83" width="12.77" height="2.84" transform="matrix(0.84, -0.55, 0.55, 0.84, -6.43, 30.94)" style="fill:#6c7b8c"/><rect x="29.94" y="19.87" width="2.84" height="12.77" transform="translate(-7.78 38.1) rotate(-56.78)" style="fill:#6c7b8c"/><line x1="27.88" y1="39.47" x2="52.13" y2="39.47" style="fill:none;stroke:#f4f6f9;stroke-miterlimit:10;stroke-width:7px"/><polygon points="28.83 39.47 60.44 39.47 60.44 64.63 19.56 64.63 19.56 39.47 28.83 39.47" style="fill:#f4f6f9;stroke:#6c7b8c;stroke-linecap:round;stroke-linejoin:round;stroke-width:2px"/><line x1="42.6" y1="45.75" x2="54.76" y2="45.75" style="fill:none;stroke:#6c7b8c;stroke-linecap:round;stroke-miterlimit:10;stroke-width:2px"/><line x1="42.6" y1="52.05" x2="54.76" y2="52.05" style="fill:none;stroke:#6c7b8c;stroke-linecap:round;stroke-miterlimit:10;stroke-width:2px"/><line x1="42.6" y1="58.35" x2="54.76" y2="58.35" style="fill:none;stroke:#6c7b8c;stroke-linecap:round;stroke-miterlimit:10;stroke-width:2px"/><rect x="25.24" y="45.75" width="11.19" height="12.6" style="fill:#f4f6f9;stroke:#6c7b8c;stroke-linecap:round;stroke-linejoin:round;stroke-width:2px"/></svg>