<?xml version="1.0" encoding="utf-8"?>
<!-- Generator: Adobe Illustrator 23.0.2, SVG Export Plug-In . SVG Version: 6.00 Build 0)  -->
<svg version="1.1" id="Layer_1" xmlns="http://www.w3.org/2000/svg" xmlns:xlink="http://www.w3.org/1999/xlink" x="0px" y="0px"
	 viewBox="0 0 80 80" style="enable-background:new 0 0 80 80;" xml:space="preserve">
<style type="text/css">
	.st0{fill:#F4F6F9;}
	.st1{fill:none;stroke:#6D7C8C;stroke-width:2;stroke-miterlimit:10;}
	.st2{fill:#6D7C8C;}
	.st3{fill:#FFFFFF;stroke:#6D7C8C;stroke-width:2;stroke-miterlimit:10;}
	.st4{fill:none;stroke:#6D7C8C;stroke-miterlimit:10;}
</style>
<rect y="0" class="st0" width="80" height="80"/>
<path class="st1" d="M47.1,33.1l11,1.6c1.1,0.2,1.5,1.5,0.7,2.2l-8,7.8c-0.3,0.3-0.4,0.7-0.4,1.2l1.9,11c0.2,1.1-0.9,1.9-1.9,1.4
	L40.6,53c-0.4-0.2-0.8-0.2-1.2,0l-9.8,5.2c-1,0.5-2.1-0.3-1.9-1.4l1.9-11c0.1-0.4-0.1-0.9-0.4-1.2l-8-7.8c-0.8-0.8-0.3-2.1,0.7-2.2
	l11-1.6c0.4-0.1,0.8-0.3,1-0.7l4.9-10c0.5-1,1.9-1,2.3,0l4.9,10C46.3,32.7,46.6,33,47.1,33.1z"/>
</svg>
