<?xml version="1.0" encoding="utf-8"?>
<!-- Generator: Adobe Illustrator 23.0.2, SVG Export Plug-In . SVG Version: 6.00 Build 0)  -->
<svg version="1.1" id="Layer_1" xmlns="http://www.w3.org/2000/svg" xmlns:xlink="http://www.w3.org/1999/xlink" x="0px" y="0px"
	 viewBox="0 0 80 80" style="enable-background:new 0 0 80 80;" xml:space="preserve">
<style type="text/css">
	.st0{fill:#F4F6F9;}
	.st1{fill:none;stroke:#6D7C8C;stroke-width:2;stroke-miterlimit:10;}
	.st2{fill:#6D7C8C;}
	.st3{fill:#FFFFFF;stroke:#6D7C8C;stroke-width:2;stroke-miterlimit:10;}
	.st4{fill:none;stroke:#6D7C8C;stroke-miterlimit:10;}
</style>
<g>
	<rect class="st0" width="80" height="80"/>
	<g>
		<path class="st1" d="M18.2,29.7c2.7,0.2,4.8,0.4,7,0.7c2.6,0.3,5.2,0.5,7.9,0.7c3.6,0.2,7.2,0.2,10.9,0.1
			c3.9-0.1,7.8-0.4,11.7-0.9c1.9-0.2,3.8-0.4,5.7-0.6c1.4-0.1,2.4,0.5,3.1,1.7c1.4,2.6,2.2,5.3,2.8,8.2c0.4,2.1-0.4,3.5-2,4.7
			c-4.1,3-8.5,5.1-13.5,5.9c-1.6,0.3-3-0.2-4.4-1c-1.2-0.7-2.3-1.6-3.3-2.4c-0.5-0.4-1-0.8-1.5-1.1c-1.9-1.2-3.4-1.2-5.2,0.1
			c-1.1,0.8-2.1,1.7-3.2,2.5c-1.2,0.9-2.6,1.7-4.1,2c-1.5,0.2-3-0.1-4.4-0.5c-3.7-1-7.1-2.7-10.2-4.9c-0.7-0.5-1.4-1.1-2-1.8
			c-0.6-0.7-0.8-1.4-0.7-2.3c0.4-3.2,1.3-6.3,2.9-9.2C16.2,30.2,17.2,29.6,18.2,29.7z"/>
		<ellipse transform="matrix(0.9823 -0.1875 0.1875 0.9823 -6.356 10.6632)" class="st2" cx="53.2" cy="38.9" rx="6.7" ry="3.6"/>
		<ellipse transform="matrix(0.1875 -0.9823 0.9823 0.1875 -16.1453 58.3546)" class="st2" cx="27.2" cy="38.9" rx="3.6" ry="6.7"/>
	</g>
</g>
</svg>
