<svg xmlns="http://www.w3.org/2000/svg" viewBox="0 0 80 80"><title>icon-cloudsaves</title><rect width="80" height="80" style="fill:#f4f6f9"/><polyline points="48.78 53.13 48.78 63.86 31.22 63.86 31.22 53.13" style="fill:none;stroke:#6c7b8c;stroke-miterlimit:10;stroke-width:2px"/><path d="M67.52,44.08a10.57,10.57,0,0,0,.42-2.95c0-5.2-3.75-9.41-8.37-9.41-.26,0-.51,0-.76,0-1.2-8.84-8-15.62-16.18-15.62a15.34,15.34,0,0,0-10.82,4.61,8.64,8.64,0,0,0-1.84-.2c-4.82,0-8.83,3.85-9.75,9-4.64.94-8.16,5.5-8.16,11a12.49,12.49,0,0,0,.53,3.6Z" style="fill:#f4f6f9;stroke:#6c7b8c;stroke-miterlimit:10;stroke-width:2px"/><line x1="40" y1="40" x2="40" y2="53.14" style="fill:none;stroke:#f4f6f9;stroke-miterlimit:10;stroke-width:8px"/><polyline points="31.22 37.91 40 29.13 48.78 37.91" style="fill:none;stroke:#6c7b8c;stroke-miterlimit:10;stroke-width:2px"/><line x1="40" y1="29.13" x2="40" y2="58.5" style="fill:none;stroke:#6c7b8c;stroke-miterlimit:10;stroke-width:2px"/></svg>