<svg xmlns="http://www.w3.org/2000/svg" viewBox="0 0 80 80"><title>icon-automatedbuild</title><rect width="80" height="80" style="fill:#f4f6f9"/><path d="M63.14,43.73V36.27l-6.9-.58a16.51,16.51,0,0,0-1.71-4.13L59,26.28,53.72,21l-5.28,4.47a16.51,16.51,0,0,0-4.13-1.71l-.58-6.9H36.27l-.58,6.9a16.51,16.51,0,0,0-4.13,1.71L26.28,21,21,26.28l4.47,5.28a16.51,16.51,0,0,0-1.71,4.13l-6.9.58v7.46l6.9.58a16.51,16.51,0,0,0,1.71,4.13L21,53.72,26.28,59l5.28-4.46a16.86,16.86,0,0,0,4.13,1.7l.58,6.9h7.46l.58-6.9a16.86,16.86,0,0,0,4.13-1.7L53.72,59,59,53.72l-4.47-5.28a16.51,16.51,0,0,0,1.71-4.13Z" style="fill:none;stroke:#6c7b8c;stroke-miterlimit:10;stroke-width:2px"/><circle cx="40" cy="40" r="7.46" style="fill:none;stroke:#6c7b8c;stroke-miterlimit:10;stroke-width:2px"/></svg>