<svg xmlns="http://www.w3.org/2000/svg" viewBox="0 0 80 80"><title>icon-Steam Input</title><rect width="80" height="80" style="fill:#f4f6f9"/><path d="M50,19.88H30A13.67,13.67,0,0,0,16.53,33.77V48.62h0a14.45,14.45,0,0,0,3.83,9.66,5.74,5.74,0,0,0,9.94-3.92h0A5.74,5.74,0,0,1,36,48.62H44a5.74,5.74,0,0,1,5.74,5.74h0a5.74,5.74,0,0,0,9.94,3.92,14.45,14.45,0,0,0,3.83-9.66h0V33.77A13.67,13.67,0,0,0,50,19.88Z" style="fill:#f4f6f9;stroke:#6c7b8c;stroke-miterlimit:10;stroke-width:2px"/><circle cx="52.91" cy="30.17" r="4.02" style="fill:#f4f6f9;stroke:#6c7b8c;stroke-miterlimit:10;stroke-width:2px"/><circle cx="27.09" cy="30.17" r="4.02" style="fill:#f4f6f9;stroke:#6c7b8c;stroke-miterlimit:10;stroke-width:2px"/><circle cx="31.97" cy="40.75" r="3.26" style="fill:#6c7b8c"/><circle cx="46.53" cy="37.49" r="1.5" style="fill:#6c7b8c"/><circle cx="43.26" cy="40.75" r="1.5" style="fill:#6c7b8c"/><circle cx="49.79" cy="40.75" r="1.5" style="fill:#6c7b8c"/><circle cx="46.53" cy="44.01" r="1.5" style="fill:#6c7b8c"/></svg>