<svg xmlns="http://www.w3.org/2000/svg" viewBox="0 0 80 80"><title>icon-userguides</title><rect width="80" height="80" style="fill:#f4f6f9"/><polygon points="31.3 19.58 28.52 24.39 25.75 19.58 16.86 19.58 16.86 60.42 48.77 60.42 51.48 55.74 54.18 60.42 63.14 60.42 63.14 19.58 31.3 19.58" style="fill:#f4f6f9;stroke:#6c7b8c;stroke-miterlimit:10;stroke-width:2px"/><path d="M16.88,44.88c0-.29-.34-6,3.47-9.42a7.28,7.28,0,0,1,8.92-.76c2,1.29,1.5,3.08,4.58,7.91,1.77,2.76,2.83,4.43,4.71,5.62.56.35,5.46,3.46,9,0,2.34-2.26,3.24-6.47,2.24-10.49" style="fill:none;stroke:#6c7b8c;stroke-linecap:round;stroke-linejoin:round;stroke-width:2px;stroke-dasharray:1,5,0,0,0,0"/><line x1="53.47" y1="37.18" x2="46.15" y2="29.86" style="fill:none;stroke:#6c7b8c;stroke-linecap:round;stroke-miterlimit:10;stroke-width:2px"/><line x1="53.47" y1="29.86" x2="46.15" y2="37.18" style="fill:none;stroke:#6c7b8c;stroke-linecap:round;stroke-miterlimit:10;stroke-width:2px"/></svg>