<svg xmlns="http://www.w3.org/2000/svg" viewBox="0 0 80 80"><title>icon-currencies</title><rect width="80" height="80" style="fill:#f4f6f9"/><circle cx="35.67" cy="44.66" r="21.89" style="fill:none;stroke:#6c7b8c;stroke-miterlimit:10;stroke-width:2px"/><ellipse cx="35.67" cy="44.66" rx="21.89" ry="7.48" style="fill:none;stroke:#6c7b8c;stroke-miterlimit:10;stroke-width:2px"/><ellipse cx="35.67" cy="44.66" rx="10.64" ry="21.89" style="fill:none;stroke:#6c7b8c;stroke-miterlimit:10;stroke-width:2px"/><circle cx="51.26" cy="28.41" r="14.96" style="fill:#f4f6f9;stroke:#f4f6f9;stroke-miterlimit:10;stroke-width:3px"/><path d="M51.74,34.26,51.82,36H50.06l.07-1.79a7.78,7.78,0,0,1-3.14-1l.74-2a7.05,7.05,0,0,0,3.21.82c1.35,0,2-.52,2-1.27,0-.92-1-1.09-2.65-1.69-1.84-.68-3.16-1.44-3.16-3.32s1.33-3.09,3.38-3.33l-.06-1.66h1.74l0,1.65a6.26,6.26,0,0,1,3,1.09l-1,1.79a5.11,5.11,0,0,0-2.79-.88c-1.06,0-1.72.46-1.72,1.21,0,1,1.2,1.21,2.88,1.82,1.87.67,3,1.38,3,3.18C55.53,32.75,54,34,51.74,34.26Z" style="fill:#6c7b8c"/><circle cx="51.26" cy="28.41" r="12.76" style="fill:none;stroke:#6c7b8c;stroke-miterlimit:10;stroke-width:2px"/></svg>