<?xml version="1.0" encoding="utf-8"?>
<!-- Generator: Adobe Illustrator 23.0.2, SVG Export Plug-In . SVG Version: 6.00 Build 0)  -->
<svg version="1.1" id="Layer_1" xmlns="http://www.w3.org/2000/svg" xmlns:xlink="http://www.w3.org/1999/xlink" x="0px" y="0px"
	 viewBox="0 0 80 80" style="enable-background:new 0 0 80 80;" xml:space="preserve">
<style type="text/css">
	.st0{fill:#F4F6F9;}
	.st1{fill:none;stroke:#6D7C8C;stroke-width:2;stroke-miterlimit:10;}
	.st2{fill:#6D7C8C;}
	.st3{fill:#FFFFFF;stroke:#6D7C8C;stroke-width:2;stroke-miterlimit:10;}
	.st4{fill:none;stroke:#6D7C8C;stroke-miterlimit:10;}
</style>
<rect class="st0" width="80" height="80"/>
<line class="st1" x1="46.4" y1="25" x2="50.7" y2="29.2"/>
<line class="st1" x1="25.2" y1="46.2" x2="29.5" y2="50.5"/>
<line class="st1" x1="42.9" y1="28.5" x2="45" y2="30.7"/>
<line class="st1" x1="35.8" y1="35.6" x2="37.9" y2="37.7"/>
<line class="st1" x1="28.7" y1="42.7" x2="30.9" y2="44.8"/>
<line class="st1" x1="21.7" y1="49.8" x2="23.8" y2="51.9"/>
<line class="st1" x1="50" y1="21.5" x2="52.1" y2="23.6"/>
<g>
	<rect x="34" y="15" transform="matrix(0.7071 0.7071 -0.7071 0.7071 39.3536 -16.0079)" class="st3" width="10" height="49"/>
	<path class="st3" d="M22.1,19.3l-3.9-1l1,3.9l1,3.9l33.2,33.2c0.8,0.8,2.1,0.8,2.8,0l2.8-2.8c0.8-0.8,0.8-2.1,0-2.9L26,20.3
		L22.1,19.3z"/>
</g>
<polyline class="st4" points="20.3,26 23.1,26 23.1,23.2 26,23.2 26,20.6 "/>
<line class="st3" x1="50.7" y1="56.4" x2="56.4" y2="50.7"/>
</svg>
