<svg xmlns="http://www.w3.org/2000/svg" viewBox="0 0 80 80"><title>icon-friendchat</title><rect width="80" height="80" style="fill:#f4f6f9"/><polygon points="17.7 48.3 49.52 48.3 62.3 60.29 62.3 16.91 17.7 16.91 17.7 48.3" style="fill:#f4f6f9;stroke:#6c7b8c;stroke-miterlimit:10;stroke-width:2px"/><path d="M34,37a7.55,7.55,0,0,1,7.55,7.56V56.51H26.45V44.6A7.55,7.55,0,0,1,34,37m0-3A10.58,10.58,0,0,0,23.45,44.6V59.51H44.56V44.6A10.57,10.57,0,0,0,34,34Z" style="fill:#f4f6f9"/><path d="M34,37h0a7.55,7.55,0,0,0-7.56,7.56V56.51H41.56V44.6A7.55,7.55,0,0,0,34,37Z" style="fill:#6c7b8c"/><circle cx="33.95" cy="30.53" r="6.58" style="fill:#6c7b8c"/><rect x="27.95" y="55.57" width="4.59" height="9.67" style="fill:#6c7b8c"/><rect x="35.48" y="55.57" width="4.59" height="9.67" style="fill:#6c7b8c"/><rect x="36.04" y="35.41" width="15.45" height="3.43" transform="translate(-13.19 30.04) rotate(-33.22)" style="fill:#6c7b8c"/></svg>