<svg xmlns="http://www.w3.org/2000/svg" viewBox="0 0 80 80"><title>icon-steamkeys</title><rect width="80" height="80" style="fill:#f4f6f9"/><path d="M63,54.85,46.12,38l.84-.84a6.9,6.9,0,0,0,0-9.77l-8.23-8.23a6.9,6.9,0,0,0-9.77,0L19.15,29a6.92,6.92,0,0,0,0,9.78L27.38,47a6.92,6.92,0,0,0,9.78,0l.84-.84,2.79,2.79,4.43-.1a.65.65,0,0,1,.67.67l-.09,4,4-.09a.65.65,0,0,1,.67.67l-.09,4,4-.09a.65.65,0,0,1,.67.67L54.87,63l8.49.4Z" style="fill:none;stroke:#6c7b8c;stroke-miterlimit:10;stroke-width:2px"/><circle cx="33.06" cy="33.06" r="4.24" style="fill:none;stroke:#6c7b8c;stroke-miterlimit:10;stroke-width:2px"/></svg>