<svg xmlns="http://www.w3.org/2000/svg" viewBox="0 0 80 80"><title>icon-fraudprevention</title><rect width="80" height="80" style="fill:#f4f6f9"/><rect x="25.86" y="33.51" width="28.27" height="27.17" style="fill:none;stroke:#6c7b8c;stroke-miterlimit:10;stroke-width:2px"/><path d="M49.83,33.51H44.07V22.81a4.07,4.07,0,1,0-8.14,0v10.7H30.17V22.81a9.83,9.83,0,0,1,19.66,0Z" style="fill:none;stroke:#6c7b8c;stroke-miterlimit:10;stroke-width:2px"/><path d="M40.56,53.86l.08,2h-2l.09-2.06a9.12,9.12,0,0,1-3.63-1.17l.86-2.3a8.19,8.19,0,0,0,3.7.94c1.56,0,2.35-.59,2.35-1.46,0-1.06-1.19-1.26-3.06-2-2.13-.79-3.65-1.67-3.65-3.84s1.53-3.57,3.9-3.85l-.06-1.92h2l-.07,1.91a7.21,7.21,0,0,1,3.51,1.25l-1.18,2.08a5.87,5.87,0,0,0-3.22-1c-1.23,0-2,.53-2,1.4,0,1.17,1.38,1.39,3.33,2.1,2.15.78,3.43,1.59,3.43,3.67C44.93,52.12,43.17,53.61,40.56,53.86Z" style="fill:#6c7b8c"/></svg>