<svg xmlns="http://www.w3.org/2000/svg" width="39.724" height="36" viewBox="0 0 39.724 36">
  <path id="Path_808" data-name="Path 808" d="M531.87,3082.483a6.207,6.207,0,0,1,6.207,6.207v4.966c0,2.031-4.965,8.689-4.965,8.689l-.034.034a21.693,21.693,0,0,1,16.172,8.654v2.484H514.491v-2.484a21.692,21.692,0,0,1,16.172-8.652l-.034-.036s-4.966-6.658-4.966-8.689v-4.966a6.207,6.207,0,0,1,6.207-6.207m0-2.483a8.7,8.7,0,0,0-8.69,8.69v4.966c0,.99.343,2.531,2.882,6.455.085.133.172.264.258.394a24.171,24.171,0,0,0-13.812,9.037,2.483,2.483,0,0,0-.5,1.491v2.484a2.482,2.482,0,0,0,2.483,2.483h34.759a2.482,2.482,0,0,0,2.483-2.483v-2.484a2.484,2.484,0,0,0-.5-1.491,24.171,24.171,0,0,0-13.812-9.037l.258-.394c2.539-3.924,2.882-5.465,2.882-6.455v-4.965a8.7,8.7,0,0,0-8.693-8.69Z" transform="translate(-512.01 -3080)" fill="#6e7d8d"/>
</svg>
