<svg xmlns="http://www.w3.org/2000/svg" width="39.725" height="22.346" viewBox="0 0 39.725 22.346">
  <path id="Path_809" data-name="Path 809" d="M2067.86,2639.517a5.586,5.586,0,0,1,0-11.172.621.621,0,0,1,0,1.241,4.345,4.345,0,1,0,4.345,4.345.621.621,0,0,1,1.241,0,5.593,5.593,0,0,1-5.586,5.586Zm19.617-5.085c-5-6.727-11.97-10.432-19.617-10.432s-14.613,3.7-19.617,10.432a1.241,1.241,0,0,0,1.991,1.482,25.089,25.089,0,0,1,5.766-5.661,12.415,12.415,0,1,0,24.272,3.679,1.241,1.241,0,1,0-2.483,0,9.931,9.931,0,1,1-18.189-5.517c.048-.071.116-.167.183-.27a20.333,20.333,0,0,1,8.075-1.662c6.842,0,13.1,3.349,17.625,9.43a1.242,1.242,0,0,0,1.994-1.482Z" transform="translate(-2047.997 -2624)" fill="#6e7d8d"/>
</svg>
