<svg xmlns="http://www.w3.org/2000/svg" width="39.724" height="24.827" viewBox="0 0 39.724 24.827">
  <path id="Path_796" data-name="Path 796" d="M526.9,3646.9a1.241,1.241,0,0,1-1.241,1.241h-2.483v2.483a1.241,1.241,0,0,1-2.483,0v-2.483h-2.483a1.241,1.241,0,1,1,0-2.483h2.483v-2.483a1.241,1.241,0,1,1,2.483,0v2.483h2.483A1.241,1.241,0,0,1,526.9,3646.9Zm16.759-1.862a1.862,1.862,0,1,0,1.862,1.862,1.862,1.862,0,0,0-1.862-1.862m0-1.241a3.1,3.1,0,1,1-3.1,3.1,3.107,3.107,0,0,1,3.1-3.1Zm-7.448,1.241a1.862,1.862,0,1,0,1.862,1.862,1.862,1.862,0,0,0-1.862-1.862m0-1.241a3.1,3.1,0,1,1-3.1,3.1,3.107,3.107,0,0,1,3.1-3.1Zm10.552-9.31H516.965a2.49,2.49,0,0,0-2.483,2.483v14.9a2.49,2.49,0,0,0,2.483,2.483h29.793a2.49,2.49,0,0,0,2.483-2.483v-14.9a2.49,2.49,0,0,0-2.483-2.483m0-2.483a4.972,4.972,0,0,1,4.966,4.965v14.9a4.971,4.971,0,0,1-4.966,4.966H516.965a4.971,4.971,0,0,1-4.965-4.966v-14.9a4.972,4.972,0,0,1,4.965-4.965Z" transform="translate(-512 -3632)" fill="#6e7d8d"/>
</svg>
